<mxfile host="app.diagrams.net" modified="2023-12-28T07:01:36.023Z" agent="Mozilla/5.0 (Windows NT 10.0; Win64; x64) AppleWebKit/537.36 (KHTML, like Gecko) Chrome/120.0.0.0 Safari/537.36" version="22.1.15" etag="xgW9DKPqjqV8Q45J6mxP" type="github">
  <diagram name="Halaman-1" id="uv9_R6b0lqxDHAhv41I7">
    <mxGraphModel>
      <root>
        <mxCell id="0" />
        <mxCell id="1" parent="0" />
      </root>
    </mxGraphModel>
  </diagram>
</mxfile>
